<?xml version="1.0" standalone="no"?>
<!DOCTYPE svg PUBLIC "-//W3C//DTD SVG 1.1//EN" "http://www.w3.org/Graphics/SVG/1.1/DTD/svg11.dtd" >
<svg xmlns="http://www.w3.org/2000/svg">
<metadata>Generated by IcoMoon</metadata>
<defs>
<font id="icomoon" horiz-adv-x="1024">
<font-face units-per-em="1024" ascent="960" descent="-64" />
<missing-glyph horiz-adv-x="1024" />
<glyph unicode="&#x20;" d="" horiz-adv-x="512" />
<glyph unicode="&#xe000;" d="M132.199 673.23c-13.874 13.721-36.302 13.721-50.126 0-13.824-13.671-13.824-35.89 0-49.614l404.889-400.896c13.874-13.721 36.249-13.721 50.126 0l404.889 400.896c13.824 13.721 13.874 35.89 0 49.614s-36.352 13.721-50.123 0.050l-379.854-365.618-379.801 365.568z" />
<glyph unicode="&#xe001;" d="M737.23 68.199c13.721-13.874 13.721-36.249 0-50.126s-35.89-13.874-49.614 0l-400.896 404.839c-13.721 13.874-13.721 36.302 0 50.126l400.896 404.889c13.721 13.874 35.89 13.874 49.614 0s13.721-36.249 0-50.126l-365.568-379.801 365.568-379.801z" />
<glyph unicode="&#xe002;" d="M891.801 222.77c13.874-13.721 36.302-13.721 50.126 0 13.874 13.721 13.874 35.89 0 49.614l-404.889 400.896c-13.824 13.721-36.249 13.721-50.073 0l-404.889-400.896c-13.824-13.721-13.874-35.89 0-49.614s36.249-13.721 50.126 0l379.801 365.618 379.799-365.618z" />
<glyph unicode="&#xe003;" d="M286.704 68.199c-13.721-13.874-13.721-36.249 0-50.126s35.89-13.874 49.614 0l400.896 404.839c13.721 13.874 13.721 36.302 0 50.126l-400.896 404.889c-13.721 13.874-35.89 13.874-49.614 0s-13.721-36.249 0-50.126l365.568-379.801-365.568-379.801z" />
<glyph unicode="&#xe004;" d="M1021.248 787.2l-93.248-371.2c0-4.448-0.896-8.64-2.496-12.448-3.264-7.68-9.376-13.824-17.024-17.056-3.84-1.632-8.064-2.496-12.48-2.496h-608l25.6-128h550.4c17.696 0 32-14.304 32-32s-14.304-32-32-32h-576c-17.696 0-32 14.304-32 32l-121.6 608h-102.4c-17.664 0-32 14.336-32 32s14.336 32 32 32h128c17.696 0 32-14.336 32-32l6.4-32h793.6c17.696 0 32-14.336 32-32 0-4.576-1.024-8.864-2.752-12.8zM275.2 448h108.8v320h-172.8l64-320zM576 768h-160v-320h160v320zM768 768h-160v-320h160v320zM800 768v-320h72.096l81.056 320h-153.152zM352 128c53.024 0 96-43.008 96-96s-42.976-96-96-96-96 43.008-96 96 42.976 96 96 96zM352 0c17.696 0 32 14.304 32 32s-14.304 32-32 32-32-14.304-32-32 14.304-32 32-32zM800 128c53.024 0 96-43.008 96-96s-42.976-96-96-96-96 43.008-96 96 42.976 96 96 96zM800 0c17.696 0 32 14.304 32 32s-14.304 32-32 32-32-14.304-32-32 14.304-32 32-32z" />
<glyph unicode="&#xe005;" d="M928 512h-832c-17.696 0-32 14.304-32 32s14.304 32 32 32h64l192 352c0 17.696 14.304 32 32 32h64c17.696 0 32-14.304 32-32l-192-352h448l-192 352c0 17.696 14.304 32 32 32h96c17.696 0 32-14.304 32-32l160-352h64c17.696 0 32-14.304 32-32s-14.304-32-32-32zM96 448h832c17.696 0 32-14.304 32-32l-64-448c0-17.696-14.304-32-32-32h-704c-17.696 0-32 14.304-32 32l-64 448c0 17.696 14.304 32 32 32zM704 64h64c17.696 0 32 14.304 32 32l32 192c0 17.696-14.304 32-32 32h-64c-17.696 0-32-14.304-32-32l-32-192c0-17.696 14.304-32 32-32zM448 96c0-17.696 14.304-32 32-32h64c17.696 0 32 14.304 32 32v192c0 17.696-14.304 32-32 32h-64c-17.696 0-32-14.304-32-32v-192zM224 96c0-17.696 14.304-32 32-32h64c17.696 0 32 14.304 32 32l-32 192c0 17.696-14.304 32-32 32h-64c-17.696 0-32-14.304-32-32l32-192z" />
<glyph unicode="&#xe006;" d="M1024 640l-512 256-512-256 512-256 512 256zM512 811.031l342.057-171.031-342.057-171.031-342.057 171.031 342.057 171.031zM921.445 499.278l102.555-51.278-512-256-512 256 102.555 51.278 409.445-204.722zM921.445 307.278l102.555-51.278-512-256-512 256 102.555 51.278 409.445-204.722z" />
<glyph unicode="&#xe007;" d="M512 768c-282.784 0-512-320-512-320s229.216-320 512-320 512 320 512 320-229.216 320-512 320zM512 256c-106.016 0-192 85.984-192 192s85.984 192 192 192 192-85.984 192-192-85.984-192-192-192zM512 576c-70.688 0-128-57.312-128-128s57.312-128 128-128 128 57.312 128 128-57.312 128-128 128z" />
<glyph unicode="&#xe008;" d="M512-64q-104 0-199.001 40.501t-163.499 109.001-109.001 163.499-40.501 199.001 40.501 199.001 109.001 163.499 163.499 109.499 199.001 41.001 199.001-41.001 163.499-109.499 109.001-163.499 40.501-199.001-40.501-199.001-109.001-163.499-163.499-109.001-199.001-40.501zM128 448q0-104 51.499-192.501t140-140 192.501-51.499q122 0 222 71.001l-535.001 535.001q-71.001-100-71.001-222zM512 832q-121.001 0-221.001-70l535.001-535.001q70 100 70 221.001 0 105.001-51.499 193.499t-140 139.499-192.501 51.001z" />
<glyph unicode="&#xe009;" d="M804.571 428.571v-181.714q0-68-48.286-116.286t-116.286-48.286h-475.429q-68 0-116.286 48.286t-48.286 116.286v475.429q0 68 48.286 116.286t116.286 48.286h475.429q36 0 66.857-14.286 8.571-4 10.286-13.143 1.714-9.714-5.143-16.571l-28-28q-5.714-5.714-13.143-5.714-1.714 0-5.143 1.143-13.143 3.429-25.714 3.429h-475.429q-37.714 0-64.571-26.857t-26.857-64.571v-475.429q0-37.714 26.857-64.571t64.571-26.857h475.429q37.714 0 64.571 26.857t26.857 64.571v145.143q0 7.429 5.143 12.571l36.571 36.571q5.714 5.714 13.143 5.714 3.429 0 6.857-1.714 11.429-4.571 11.429-16.571zM936.571 708l-465.143-465.143q-13.714-13.714-32.571-13.714t-32.571 13.714l-245.714 245.714q-13.714 13.714-13.714 32.571t13.714 32.571l62.857 62.857q13.714 13.714 32.571 13.714t32.571-13.714l150.286-150.286 369.714 369.714q13.714 13.714 32.571 13.714t32.571-13.714l62.857-62.857q13.714-13.714 13.714-32.571t-13.714-32.571z" horiz-adv-x="951" />
<glyph unicode="&#xe010;" d="M934.176 791.52c-116.128 115.072-301.824 117.472-422.112 9.216-120.32 108.256-305.952 105.856-422.144-9.216-119.712-118.528-119.712-310.688 0-429.28 34.208-33.888 353.696-350.112 353.696-350.112 37.856-37.504 99.072-37.504 136.896 0 0 0 349.824 346.304 353.696 350.112 119.744 118.592 119.744 310.752-0.032 429.28zM888.576 407.424l-353.696-350.112c-12.576-12.512-33.088-12.512-45.6 0l-353.696 350.112c-94.4 93.44-94.4 245.472 0 338.912 91.008 90.080 237.312 93.248 333.088 7.104l43.392-39.040 43.36 39.040c95.808 86.144 242.112 83.008 333.12-7.104 94.4-93.408 94.4-245.44 0.032-338.912zM296.096 719.968c8.864 0 16-7.168 16-16s-7.168-16-16-16h-0.032c-57.408 0-103.968-46.56-103.968-103.968v-0.032c0-8.832-7.168-16-16-16s-16 7.168-16 16v0c0 75.072 60.832 135.904 135.872 135.968 0.064 0 0.064 0.032 0.128 0.032z" />
<glyph unicode="&#xe011;" d="M512 832c-247.424 0-448-200.576-448-448s200.576-448 448-448 448 200.576 448 448-200.576 448-448 448zM512 24c-198.825 0-360 161.177-360 360 0 198.825 161.175 360 360 360 198.823 0 360-161.175 360-360 0-198.823-161.177-360-360-360zM934.784 672.825c16.041 28.053 25.216 60.544 25.216 95.175 0 106.041-85.959 192-192 192-61.817 0-116.802-29.223-151.92-74.597 131.883-27.234 245.207-105.198 318.704-212.578zM407.92 885.403c-35.115 45.374-90.103 74.597-151.92 74.597-106.039 0-192-85.959-192-192 0-34.631 9.175-67.122 25.216-95.175 73.499 107.381 186.823 185.344 318.704 212.578zM448 640h64v-320h-64v320zM512 384h192v-64h-192v64z" />
<glyph unicode="&#xe012;" d="M519.429 162.857l58.286 58.286q10.857 10.857 10.857 25.714t-10.857 25.714l-175.429 175.429 175.429 175.429q10.857 10.857 10.857 25.714t-10.857 25.714l-58.286 58.286q-10.857 10.857-25.714 10.857t-25.714-10.857l-259.429-259.429q-10.857-10.857-10.857-25.714t10.857-25.714l259.429-259.429q10.857-10.857 25.714-10.857t25.714 10.857zM877.714 448q0-119.429-58.857-220.286t-159.714-159.714-220.286-58.857-220.286 58.857-159.714 159.714-58.857 220.286 58.857 220.286 159.714 159.714 220.286 58.857 220.286-58.857 159.714-159.714 58.857-220.286z" horiz-adv-x="878" />
<glyph unicode="&#xe013;" d="M409.714 162.857l259.429 259.429q10.857 10.857 10.857 25.714t-10.857 25.714l-259.429 259.429q-10.857 10.857-25.714 10.857t-25.714-10.857l-58.286-58.286q-10.857-10.857-10.857-25.714t10.857-25.714l175.429-175.429-175.429-175.429q-10.857-10.857-10.857-25.714t10.857-25.714l58.286-58.286q10.857-10.857 25.714-10.857t25.714 10.857zM877.714 448q0-119.429-58.857-220.286t-159.714-159.714-220.286-58.857-220.286 58.857-159.714 159.714-58.857 220.286 58.857 220.286 159.714 159.714 220.286 58.857 220.286-58.857 159.714-159.714 58.857-220.286z" horiz-adv-x="878" />
<glyph unicode="&#xe014;" d="M495.232 337.248l-270.432-272.032v733.568h542.432v-733.568l-272 272.032z" />
<glyph unicode="&#xe015;" d="M512-64q-104 0-199.001 40.501t-163.499 109.001-109.001 163.499-40.501 199.001 40.501 198.501 109.001 163.001 163.499 109.001 199.001 40.501 199.001-40.501 163.499-109.001 109.001-163.001 40.501-198.501-40.501-199.001-109.001-163.499-163.499-109.001-199.001-40.501zM734 134.999l-222 222-222-222q100-71.001 222-71.001t222 71.001zM128 448q0-122 70-221.001l222 222-221.001 221.001q-71.001-100-71.001-222zM291.001 760.999l221.001-220 221.001 220q-100 71.001-221.001 71.001t-221.001-71.001zM825.001 670l-221.001-221.001 222-222q70 99.001 70 221.001t-71.001 222z" />
<glyph unicode="&#xe016;" d="M292 642.286h146.857l-17.143-162.286h-129.714v-470.857h-194.857v470.857h-97.143v162.286h97.143v97.714q0 104 49.143 157.429t161.714 53.429h129.714v-162.286h-81.143q-22.286 0-35.714-3.714t-19.429-13.429-7.714-19.714-1.714-28.286v-81.143z" horiz-adv-x="439" />
<glyph unicode="&#xe017;" d="M500.571 122.857q0 12-2.571 23.143t-5.429 20.571-10 19.714-12 17.429-15.143 16.857-15.714 14.571-18.286 14.571-17.714 13.143-18.857 13.143-17.429 12q-9.714 1.143-28.571 1.143-30.857 0-60.571-4t-61.714-14.286-56-26.286-39.429-42.857-15.429-61.143q0-38.857 20.286-69.429t53.143-48 68.857-26 72.571-8.571q33.714 0 64.286 7.143t57.429 22.286 42.571 42 15.714 62.857zM432 615.429q0 34.286-9.429 72.857t-26.857 74.571-48 59.429-68.286 23.429q-53.143 0-82.286-39.429t-29.143-94.286q0-26.857 6.571-56.571t20.286-59.429 32-53.429 44.571-38.571 55.429-14.857q55.429 0 80.286 34.571t24.857 91.714zM357.143 886.857h249.714l-77.143-45.143h-77.143q40.571-25.714 62.857-72t22.286-96.571q0-42.286-13.143-75.143t-32-52.857-37.714-36.857-32-34.857-13.143-38.571q0-14.857 9.429-29.143t24.571-27.429 33.429-27.429 36.571-31.714 33.429-37.714 24.571-48.571 9.429-60.857q0-91.429-80-161.143-86.857-74.857-240-74.857-33.714 0-68.286 5.714t-69.714 19.143-62 33.143-44 50.857-17.143 69.429q0 34.857 21.143 77.143 18.286 36.571 54.857 63.143t82.857 40.571 88.571 20.571 85.714 7.714q-36.571 47.429-36.571 85.143 0 6.857 1.143 13.429t2.857 11.143 4.571 12.286 4 12.286q-22.857-2.857-40-2.857-85.143 0-146 56t-60.857 140.571q0 80 54.286 143.143t133.714 80.857q53.714 11.429 106.857 11.429zM950.857 740.571v-73.143h-146.286v-146.286h-73.143v146.286h-146.286v73.143h146.286v146.286h73.143v-146.286h146.286z" horiz-adv-x="951" />
<glyph unicode="&#xe018;" d="M925.714 726.857q-38.286-56-92.571-95.429 0.571-8 0.571-24 0-74.286-21.714-148.286t-66-142-105.429-120.286-147.429-83.429-184.571-31.143q-154.857 0-283.429 82.857 20-2.286 44.571-2.286 128.571 0 229.143 78.857-60 1.143-107.429 36.857t-65.143 91.143q18.857-2.857 34.857-2.857 24.571 0 48.571 6.286-64 13.143-106 63.714t-42 117.429v2.286q38.857-21.714 83.429-23.429-37.714 25.143-60 65.714t-22.286 88q0 50.286 25.143 93.143 69.143-85.143 168.286-136.286t212.286-56.857q-4.571 21.714-4.571 42.286 0 76.571 54 130.571t130.571 54q80 0 134.857-58.286 62.286 12 117.143 44.571-21.143-65.714-81.143-101.714 53.143 5.714 106.286 28.571z" horiz-adv-x="951" />
<glyph unicode="&#xe019;" d="M585.143 102.857q-24 137.714-80 284.571h-1.143l-1.143-0.571q-9.143-3.429-24.571-9.429t-57.714-28-78.286-46.857-74.857-65.429-58.857-84.571l-8.571 6.286q105.143-85.714 238.857-85.714 75.429 0 146.286 29.714zM479.429 449.714q-12 28-30.286 63.429-177.714-53.143-384.571-53.143-0.571-4-0.571-12 0-70.857 25.143-135.143t70.857-115.143q28.571 50.857 70.571 95.143t81.429 71.143 74.571 46.286 56.857 27.429l21.143 7.429q2.286 0.571 7.429 2t7.429 2.571zM418.286 570.857q-68.571 121.714-139.429 216-78.857-37.143-133.714-106.286t-73.143-155.429q172.571 0 346.286 45.714zM809.143 388.571q-120 34.286-233.714 16.571 49.714-136.571 73.143-268 63.429 42.857 105.714 108.286t54.857 143.143zM349.143 812q-0.571 0-1.143-0.571 0.571 0.571 1.143 0.571zM686.286 729.143q-105.714 93.714-247.429 93.714-43.429 0-88.571-10.857 74.857-97.143 140.571-218.286 39.429 14.857 74.286 34.571t55.143 35.143 37.429 32.571 21.429 23.143zM813.714 452q-1.714 132.571-85.143 234.286l-0.571-0.571q-5.143-6.857-10.857-14t-24.857-25.429-40.571-34.571-57.143-37.143-75.143-36.857q14.286-30.286 25.143-54.286 1.143-3.429 3.714-10t4.286-9.429q20.571 2.857 42.571 4t42 1.143 39.429-0.857 36.571-2.286 32.286-3.143 27.429-3.714 20.857-3.429 14.286-2.571zM877.714 448q0-119.429-58.857-220.286t-159.714-159.714-220.286-58.857-220.286 58.857-159.714 159.714-58.857 220.286 58.857 220.286 159.714 159.714 220.286 58.857 220.286-58.857 159.714-159.714 58.857-220.286z" horiz-adv-x="878" />
<glyph unicode="&#xe020;" d="M199.429 602.857v-566.286h-188.571v566.286h188.571zM211.429 777.714q0.571-41.714-28.857-69.714t-77.429-28h-1.143q-46.857 0-75.429 28t-28.571 69.714q0 42.286 29.429 70t76.857 27.714 76-27.714 29.143-70zM877.714 361.143v-324.571h-188v302.857q0 60-23.143 94t-72.286 34q-36 0-60.286-19.714t-36.286-48.857q-6.286-17.143-6.286-46.286v-316h-188q1.143 228 1.143 369.714t-0.571 169.143l-0.571 27.429h188v-82.286h-1.143q11.429 18.286 23.429 32t32.286 29.714 49.714 24.857 65.429 8.857q97.714 0 157.143-64.857t59.429-190z" horiz-adv-x="878" />
<glyph unicode="&#xe021;" d="M554.857 249.143v-120.571q0-38.286-22.286-38.286-13.143 0-25.714 12.571v172q12.571 12.571 25.714 12.571 22.286 0 22.286-38.286zM748 248.571v-26.286h-51.429v26.286q0 38.857 25.714 38.857t25.714-38.857zM196 373.143h61.143v53.714h-178.286v-53.714h60v-325.143h57.143v325.143zM360.571 48h50.857v282.286h-50.857v-216q-17.143-24-32.571-24-10.286 0-12 12-0.571 1.714-0.571 20v208h-50.857v-223.429q0-28 4.571-41.714 6.857-21.143 33.143-21.143 27.429 0 58.286 34.857v-30.857zM605.714 132.571v112.571q0 41.714-5.143 56.571-9.714 32-40.571 32-28.571 0-53.143-30.857v124h-50.857v-378.857h50.857v27.429q25.714-31.429 53.143-31.429 30.857 0 40.571 31.429 5.143 15.429 5.143 57.143zM798.857 138.286v7.429h-52q0-29.143-1.143-34.857-4-20.571-22.857-20.571-26.286 0-26.286 39.429v49.714h102.286v58.857q0 45.143-15.429 66.286-22.286 29.143-60.571 29.143-38.857 0-61.143-29.143-16-21.143-16-66.286v-98.857q0-45.143 16.571-66.286 22.286-29.143 61.714-29.143 41.143 0 61.714 30.286 10.286 15.429 12 30.857 1.143 5.143 1.143 33.143zM451.429 660v120q0 39.429-24.571 39.429t-24.571-39.429v-120q0-40 24.571-40t24.571 40zM862.286 230.857q0-133.714-14.857-200-8-33.714-33.143-56.571t-58.286-26.286q-105.143-12-317.143-12t-317.143 12q-33.143 3.429-58.571 26.286t-32.857 56.571q-14.857 64-14.857 200 0 133.714 14.857 200 8 33.714 33.143 56.571t58.857 26.857q104.571 11.429 316.571 11.429t317.143-11.429q33.143-4 58.571-26.857t32.857-56.571q14.857-64 14.857-200zM292 960h58.286l-69.143-228v-154.857h-57.143v154.857q-8 42.286-34.857 121.143-21.143 58.857-37.143 106.857h60.571l40.571-150.286zM503.429 769.714v-100q0-46.286-16-67.429-21.143-29.143-60.571-29.143-38.286 0-60 29.143-16 21.714-16 67.429v100q0 45.714 16 66.857 21.714 29.143 60 29.143 39.429 0 60.571-29.143 16-21.143 16-66.857zM694.857 862.286v-285.143h-52v31.429q-30.286-35.429-58.857-35.429-26.286 0-33.714 21.143-4.571 13.714-4.571 42.857v225.143h52v-209.714q0-18.857 0.571-20 1.714-12.571 12-12.571 15.429 0 32.571 24.571v217.714h52z" horiz-adv-x="878" />
<glyph unicode="&#xe022;" d="M864.091 558.592c0-9.502-8.151-17.367-18.226-17.367s-18.064 7.865-18.064 17.367c0 115.465-98.098 209.061-218.603 209.061-10.075 0-18.185 7.742-18.185 17.408 0 9.543 8.11 17.326 18.185 17.326 140.656 0.082 254.894-109.035 254.894-243.794zM641.883 960c41.369 0 83.518-6.8 124.887-21.136 199.433-68.976 305.029-286.555 236.176-485.909-54.64-157.982-202.67-257.189-360.981-257.189-41.493 0-83.518 6.8-124.969 21.136-199.433 69.017-305.152 286.597-236.135 485.95 54.642 157.984 202.631 257.147 361.022 257.147zM641.883 856.453c-118.619 0-224.421-75.326-263.168-187.515-24.329-70.286-19.824-145.858 12.658-212.745 32.521-66.846 89.129-117.104 159.458-141.435 29.531-10.24 60.251-15.36 91.136-15.36 118.619 0 224.379 75.285 263.127 187.474 24.411 70.288 19.783 145.817-12.738 212.706-32.521 66.928-89.129 117.145-159.417 141.477h-0.041c-29.493 10.197-60.213 15.399-91.015 15.399v0zM334.274 369.602c-291.554-291.513-79.504-83.067-292.249-295.854 58.327-58.368 19.415-19.456 123.904-123.904 102.441 102.441 0 0 53.413 53.454l249.406 249.527zM642.416 960c41.369 0 83.518-6.8 124.887-21.136 199.433-68.976 305.029-286.555 236.176-485.909-54.64-157.982-202.67-257.189-360.981-257.189-41.493 0-83.518 6.8-124.969 21.136-199.433 69.017-305.152 286.597-236.135 485.95 54.642 157.984 202.631 257.147 361.022 257.147zM642.416 856.453c-118.619 0-224.421-75.326-263.168-187.515-24.329-70.286-19.824-145.858 12.658-212.745 32.521-66.846 89.129-117.104 159.458-141.435 29.531-10.24 60.251-15.36 91.136-15.36 118.619 0 224.379 75.285 263.127 187.474 24.411 70.288 19.783 145.817-12.738 212.706-32.521 66.928-89.129 117.145-159.417 141.477h-0.041c-29.493 10.197-60.213 15.399-91.015 15.399v0z" />
<glyph unicode="&#xe023;" d="M320 768c0-106.039 85.961-192 192-192s192 85.961 192 192c0 106.039-85.961 192-192 192s-192-85.961-192-192zM768.078 512h-35.424l-199.104-404.245 74.45 372.245-96 96-96-96 74.45-372.245-199.102 404.245h-35.424c-127.925 0-127.925-85.986-127.925-192v-320h768v320c0 106.014 0 192-127.922 192z" />
<glyph unicode="&#xe024;" d="M512 960c-176.731 0-320-143.269-320-320 0-320 320-704 320-704s320 384 320 704c0 176.731-143.271 320-320 320zM512 448c-106.041 0-192 85.959-192 192s85.959 192 192 192 192-85.959 192-192-85.961-192-192-192z" />
<glyph unicode="&#xe025;" d="M928 832h-832c-53.024 0-96-42.976-96-96v-576c0-52.992 42.976-96 96-96h832c53.024 0 96 43.008 96 96v576c0 53.024-42.976 96-96 96zM87.712 128.32l-23.392 23.424 263.968 263.936 23.392-23.424-263.968-263.936zM936.288 128.32l-263.968 263.936 23.392 23.424 263.968-263.936-23.392-23.424zM544 341.6v-21.6h-64v21.6l-415.904 385.6 40.704 40.704 407.2-377.536 407.2 377.536 40.704-40.704-415.904-385.6z" />
<glyph unicode="&#xe026;" d="M704 320c-64-64-64-128-128-128s-128 64-192 128-128 128-128 192 64 64 128 128-128 256-192 256-192-192-192-192c0-128 131.499-387.499 256-512s384-256 512-256c0 0 192 128 192 192s-192 256-256 192z" />
<glyph unicode="&#xe027;" d="M636.519 960c68.608 0 102.912-46.798 102.912-100.249 0-66.766-59.598-128.562-137.113-128.562-65.024 0-102.912 38.4-101.12 101.838 0 53.502 45.056 126.974 135.321 126.974zM425.422-64c-54.169 0-93.849 33.383-55.961 180.377l62.158 260.658c10.802 41.728 12.594 58.471 0 58.471-16.281 0-86.528-28.825-128.103-57.241l-27.035 45.109c131.737 111.922 283.239 177.511 348.21 177.511 54.119 0 63.079-65.127 36.096-165.326l-71.218-274.023c-12.594-48.434-7.218-65.127 5.376-65.127 16.281 0 69.479 20.121 121.806 61.849l30.72-41.728c-128.053-130.354-267.931-180.53-322.048-180.53z" />
<glyph unicode="&#xe028;" d="M500.654 856.741c126.935 2.498 230.974-52.059 296.386-117.474 65.742-65.742 122.798-159.621 122.798-289.71 0-131.605-48.905-223.847-118.784-293.723-67.87-67.831-162.366-122.798-289.71-122.798-132.343 0-225.486 49.234-295.077 118.784-67.419 67.419-122.512 159.909-124.151 288.4-1.639 127.303 53.534 228.393 118.825 293.682 67.545 67.543 156.798 120.176 289.712 122.839zM242.974 699.166c-58.533-61.646-105.063-146.185-102.809-260.343 2.254-113.378 46.898-197.959 109.486-256.327 64.88-60.539 147.989-102.809 263.003-102.809 111.534 0 198.491 48.537 256.327 109.445 61.358 64.677 104.121 144.507 104.121 261.694 0 56.647-13.147 107.152-33.342 149.545-54.969 115.426-170.311 212.951-339.109 209.634-116.487-2.334-201.029-51.159-257.678-110.839zM323.093 717.886c135.986-88.761 277.177-183.87 412.507-277.669-138.117-91.095-274.35-184.034-411.157-276.398 59.801 90.562 128 184.443 190.914 276.398-62.053 94.576-127.63 185.632-192.265 277.669z" />
<glyph unicode="&#xe029;" d="M64 768h896v-192h-896zM64 512h896v-192h-896zM64 256h896v-192h-896z" />
<glyph unicode="&#xe030;" d="M0 640h1024v-64h-1024zM0 384h1024v-64h-1024zM0 128h1024v-64h-1024zM0 768h1024v-64h-1024zM0 512h1024v-64h-1024zM0 256h1024v-64h-1024z" />
<glyph unicode="&#xe031;" d="M960 64v-64h-64v-64h-896v192h768v64h64v384h-64v64h-512v-128h-64v64h-64v64h-64v64h-64v64h64v64h64v64h64v64h64v-128h640v-64h64v-64h64v-640h-64z" />
<glyph unicode="&#xe032;" d="M960-64h-128q-26 0-45.001 19.001t-19.001 45.001v128q0 26 19.001 45.001t45.001 19.001h128q26 0 45.001-19.001t19.001-45.001v-128q0-27.001-18.501-45.499t-45.499-18.501zM960 320h-128q-26 0-45.001 18.501t-19.001 45.499v128q0 27.001 19.001 45.499t45.001 18.501h128q26 0 45.001-18.501t19.001-45.499v-128q0-27.001-18.501-45.499t-45.499-18.501zM960 704h-128q-26 0-45.001 19.001t-19.001 45.001v128q0 27.001 19.001 45.499t45.001 18.501h128q26 0 45.001-18.501t19.001-45.499v-128q0-26-18.501-45.001t-45.499-19.001zM576-64h-128q-27.001 0-45.499 19.001t-18.501 45.001v128q0 26 19.001 45.001t45.001 19.001h128q27.001 0 45.499-19.001t18.501-45.001v-128q0-27.001-18.501-45.499t-45.499-18.501zM576 320h-128q-27.001 0-45.499 18.501t-18.501 45.499v128q0 27.001 19.001 45.499t45.001 18.501h128q27.001 0 45.499-18.501t18.501-45.499v-128q0-27.001-18.501-45.499t-45.499-18.501zM576 704h-128q-27.001 0-45.499 19.001t-18.501 45.001v128q0 27.001 19.001 45.499t45.001 18.501h128q27.001 0 45.499-18.501t18.501-45.499v-128q0-26-18.501-45.001t-45.499-19.001zM192-64h-128q-26 0-45.001 19.001t-19.001 45.001v128q0 26 19.001 45.001t45.001 19.001h128q26 0 45.001-19.001t19.001-45.001v-128q0-27.001-18.501-45.499t-45.499-18.501zM192 320h-128q-26 0-45.001 18.501t-19.001 45.499v128q0 27.001 19.001 45.499t45.001 18.501h128q26 0 45.001-18.501t19.001-45.499v-128q0-27.001-18.501-45.499t-45.499-18.501zM192 704h-128q-26 0-45.001 19.001t-19.001 45.001v128q0 27.001 19.001 45.499t45.001 18.501h128q26 0 45.001-18.501t19.001-45.499v-128q0-26-18.501-45.001t-45.499-19.001z" />
<glyph unicode="&#xe033;" d="M0 128v-192h192v192h-192zM0 512v-192h192v192h-192zM0 896v-192h192v192h-192zM320 512v-192h704v192h-704zM320 128v-192h704v192h-704zM320 896v-192h704v192h-704z" />
<glyph unicode="&#xe034;" d="M0 886.112c0-40.324 32.689-73.014 73.014-73.014s73.014 32.689 73.014 73.014c0 40.324-32.689 73.014-73.014 73.014s-73.014-32.689-73.014-73.014zM0 594.023c0-40.324 32.689-73.014 73.014-73.014s73.014 32.689 73.014 73.014c0 40.324-32.689 73.014-73.014 73.014s-73.014-32.689-73.014-73.014zM0 301.968c0-40.324 32.689-73.014 73.014-73.014s73.014 32.689 73.014 73.014c0 40.324-32.689 73.014-73.014 73.014s-73.014-32.689-73.014-73.014zM0 9.879c0-40.324 32.689-73.014 73.014-73.014s73.014 32.689 73.014 73.014c0 40.324-32.689 73.014-73.014 73.014s-73.014-32.689-73.014-73.014zM292.089 959.125h876.123v-146.027h-876.123zM292.089 667.035h876.123v-146.027h-876.123zM292.089 374.983h876.123v-146.027h-876.123zM292.089 82.891h876.123v-146.025h-876.123z" horiz-adv-x="1168" />
<glyph unicode="&#xe035;" d="M451.008 955.641c127.282-9.984 228.018-64.949 295.234-175.465 39.291-64.594 48.078-135.792 40.871-209.657-10.087-103.483-41.639-198.071-118.944-271.842-62.048-59.218-137.003-84.791-222.203-75.065-46.249 5.28-84.965 27.698-115.47 67.895-10.123-39.065-21.109-74.921-28.546-111.495-17.609-86.569-58.928-161.218-111.927-230.334-3.209-4.183-8.933-6.439-13.488-9.589-2.711 5.349-6.992 10.448-7.897 16.089-14.951 93.097-6.873 184.395 17.65 275.381 21.733 80.638 39.269 162.416 57.945 243.858 1.726 7.525-0.574 16.597-2.958 24.347-18.811 61.138-20.249 121.019 13.575 177.808 17.954 30.144 44.651 50.517 80.167 52.718 52.306 3.237 89.794-31.387 83.749-92.889-4.103-41.749-17.639-82.633-27.781-123.701-5.941-24.050-13.454-47.717-20.338-71.531-10.519-36.37-4.446-69.001 24.078-94.921 31.301-28.453 68.809-30.288 106.633-17.902 40.238 13.163 68.624 42.357 89.221 78.299 47.387 82.688 64.56 172.635 51.781 266.208-12.594 92.215-69.029 150.453-158.574 173.323-91.751 23.431-179.031 10.663-257.369-44.923-89.845-63.755-135.49-197.73-99.968-291.998 5.886-15.618 14.523-30.88 24.859-43.966 10.887-13.787 14.37-26.837 8.974-43.353-3.84-11.755-5.744-24.128-9.029-36.080-5.328-19.394-14.971-24.663-33.195-16.91-60.537 25.774-91.086 75.744-106.617 136.423-6.121 23.847-8.302 48.706-12.272 73.111 0 7.847 0 15.694 0 23.541 5.257 27.415 7.442 55.872 16.279 82.087 53.593 159.017 169.289 242.251 331.447 267.134 20.011 3.074 40.167 5.195 60.254 7.758z" horiz-adv-x="791" />
<glyph unicode="&#xe036;" d="M505.714 636.571q10.286-11.429 4-25.143l-308.571-661.143q-7.429-14.286-24-14.286-2.286 0-8 1.143-9.714 2.857-14.571 10.857t-2.571 17.143l112.571 461.714-232-57.714q-2.286-0.571-6.857-0.571-10.286 0-17.714 6.286-10.286 8.571-7.429 22.286l114.857 471.429q2.286 8 9.143 13.143t16 5.143h187.429q10.857 0 18.286-7.143t7.429-16.857q0-4.571-2.857-10.286l-97.714-264.571 226.286 56q4.571 1.143 6.857 1.143 10.857 0 19.429-8.571z" horiz-adv-x="512" />
<glyph unicode="&#xe037;" d="M832 265.143q0 22.857-16 38.857l-118.857 118.857q-16 16-38.857 16-24 0-41.143-18.286 1.714-1.714 10.857-10.571t12.286-12.286 8.571-10.857 7.429-14.571 2-15.714q0-22.857-16-38.857t-38.857-16q-8.571 0-15.714 2t-14.571 7.429-10.857 8.571-12.286 12.286-10.571 10.857q-18.857-17.714-18.857-41.714 0-22.857 16-38.857l117.714-118.286q15.429-15.429 38.857-15.429 22.857 0 38.857 14.857l84 83.429q16 16 16 38.286zM430.286 668q0 22.857-16 38.857l-117.714 118.286q-16 16-38.857 16-22.286 0-38.857-15.429l-84-83.429q-16-16-16-38.286 0-22.857 16-38.857l118.857-118.857q15.429-15.429 38.857-15.429 24 0 41.143 17.714-1.714 1.714-10.857 10.571t-12.286 12.286-8.571 10.857-7.429 14.571-2 15.714q0 22.857 16 38.857t38.857 16q8.571 0 15.714-2t14.571-7.429 10.857-8.571 12.286-12.286 10.571-10.857q18.857 17.714 18.857 41.714zM941.714 265.143q0-68.571-48.571-116l-84-83.429q-47.429-47.429-116-47.429-69.143 0-116.571 48.571l-117.714 118.286q-47.429 47.429-47.429 116 0 70.286 50.286 119.429l-50.286 50.286q-49.143-50.286-118.857-50.286-68.571 0-116.571 48l-118.857 118.857q-48 48-48 116.571t48.571 116l84 83.429q47.429 47.429 116 47.429 69.143 0 116.571-48.571l117.714-118.286q47.429-47.429 47.429-116 0-70.286-50.286-119.429l50.286-50.286q49.143 50.286 118.857 50.286 68.571 0 116.571-48l118.857-118.857q48-48 48-116.571z" horiz-adv-x="951" />
<glyph unicode="&#xe038;" d="M854 960h-684c-93.499 0-170-76.501-170-170v-684c0-93.499 76.501-170 170-170h684c93.499 0 170 76.501 170 170v684c0 93.499-76.501 170-170 170zM327.799 512h368.4c6.987-20.057 10.8-41.591 10.8-64 0-107.525-87.477-195.001-195.001-195.001s-195.001 87.477-195.001 195.001c0.005 22.409 3.815 43.943 10.802 64zM896 511.95v-383.95c0-35.2-28.8-64-64-64h-640c-35.2 0-64 28.8-64 64v384h100.107c-4.642-20.601-7.109-42.016-7.109-64 0-160.457 130.542-291.001 291.001-291.001 160.457 0 291.001 130.542 291.001 291.001 0 21.984-2.464 43.399-7.109 64l100.107-0.050zM896 736c0-17.6-14.4-32-32-32h-64c-17.6 0-32 14.4-32 32v64c0 17.6 14.4 32 32 32h64c17.6 0 32-14.4 32-32v-64z" />
<glyph unicode="&#xe098;" d="M877.714 448q0-119.429-58.857-220.286t-159.714-159.714-220.286-58.857-220.286 58.857-159.714 159.714-58.857 220.286 58.857 220.286 159.714 159.714 220.286 58.857 220.286-58.857 159.714-159.714 58.857-220.286z" horiz-adv-x="878" />
<glyph unicode="&#xe099;" d="M1024 601.845c0 162.457-131.701 294.155-294.155 294.155-86.363 0-164.030-37.218-217.845-96.489-53.815 59.271-131.481 96.489-217.845 96.489-162.457 0-294.155-131.698-294.155-294.155 0-86.363 37.218-164.030 96.489-217.845h-0.489l320-320c32-32 64-64 96-64s64 32 96 64l320 320h-0.489c59.271 53.815 96.489 131.481 96.489 217.845zM841.467 478.768l-323.977-324.258c-1.678-1.678-3.531-3.531-5.49-5.479-1.959 1.95-3.815 3.801-5.49 5.479l-323.977 324.256c-35.166 31.929-54.533 75.639-54.533 123.079 0 91.618 74.537 166.155 166.155 166.155 47.44 0 91.15-19.367 123.077-54.533l94.768-104.379 94.768 104.377c31.929 35.168 75.637 54.535 123.077 54.535 91.618 0 166.155-74.537 166.155-166.155 0-47.44-19.369-91.15-54.533-123.077z" />
<glyph unicode="&#xe600;" d="M623.63 594.506l-108.055 218.836-107.929-218.836-241.44-35.038 174.702-170.33-41.26-240.491 215.928 113.507 216.056-113.507-41.25 240.491 174.68 170.33zM512 960c-282.315 0-511.99-229.675-511.99-512.012 0-282.325 229.675-511.986 511.988-511.986 282.303 0 511.988 229.663 511.988 511.986 0.026 282.337-229.636 512.012-511.986 512.012zM512-16.002c-255.841 0-463.988 208.146-463.988 463.988 0 255.866 208.146 464.014 463.988 464.014s463.988-208.148 463.988-464.014c0.024-255.839-208.122-463.988-463.988-463.988z" />
<glyph unicode="&#xe601;" d="M1024 448c0-282.77-229.23-512-512-512s-512 229.23-512 512c0 282.77 229.23 512 512 512s512-229.23 512-512zM962.56 448c0 248.837-201.723 450.56-450.56 450.56s-450.56-201.723-450.56-450.56c0-248.837 201.723-450.56 450.56-450.56s450.56 201.723 450.56 450.56zM326.268 305.902c0-31.55 24.449-57.017 54.541-57.017 30.209 0 54.612 25.465 54.614 57.017 0 31.385-24.404 57.138-54.614 57.138-30.092 0-54.541-25.753-54.541-57.138zM326.268 450.454c51.143 0 99.234-20.98 135.439-58.989 36.167-37.928 56.12-88.613 56.12-142.459l78.891 0.001c0 156.523-121.368 283.842-270.45 283.842v-82.396zM326.268 596.53c182.371 0 330.829-155.908 330.829-347.479l78.771-0.003c0 236.989-183.767 429.917-409.6 429.917v-82.436z" />
<glyph unicode="&#xe602;" d="M883.657 442.64h-52.225c0 170.437-138.619 309.024-308.962 309.024l-0.031 52.162c199.214 0.094 361.218-161.973 361.218-361.187zM522.439 713.733l-0.031-52.162c120.782 0 218.9-98.212 218.837-218.9l52.225 0.031c0 149.434-121.503 271.031-271.031 271.031zM512 960c-282.348 0-512-229.652-512-512.031 0-282.316 229.652-511.969 512-511.969 17.461 0 31.567 14.106 31.567 31.536 0 17.523-14.106 31.661-31.567 31.661-247.52 0-448.835 201.377-448.835 448.772 0 247.52 201.314 448.866 448.835 448.866s448.803-201.377 448.803-448.866c0-103.416-55.046-205.891-133.823-249.339-28.62-15.736-59.654-23.542-92.757-23.856 19.874 11.818 37.084 27.805 49.874 47.93 2.508 3.793 5.831 7.147 7.461 11.254 10.282 24.733 11.191 52.789 17.398 78.933 7.617 33.354-146.017 98.525-159.371 56.865-4.828-15.423-12.226-64.2-21.912-77.052-8.621-11.473-29.874-6.019-43.166 5.266-35.015 29.843-74.106 73.698-108.4 108.369l0.063 0.031c-0.878 0.909-1.944 1.912-2.884 2.884-0.972 0.909-1.944 1.944-2.915 2.884v-0.063c-34.67 34.357-78.557 73.353-108.369 108.431-11.285 13.291-16.74 34.545-5.266 43.166 12.853 9.749 61.629 17.022 77.052 21.912 41.567 13.291-23.511 167.020-56.927 159.371-26.081-6.113-54.137-7.116-78.871-17.335-4.201-1.787-7.461-5.016-11.254-7.523-87.742-55.611-99.058-190.656-13.417-291.282 32.633-38.495 66.676-75.736 101.723-112.099l-0.188-0.125c0.972-0.972 1.975-1.881 2.978-2.821 0.94-0.972 1.85-1.944 2.759-2.978l0.188 0.188c36.363-35.047 79.466-86.676 149.497-133.384 147.428-98.463 260.561-70.971 327.206-34.42 115.046 63.353 166.518 198.681 166.518 304.667 0 282.504-229.684 512.157-512 512.157z" />
<glyph unicode="&#xe603;" d="M689.231 519.824v39.385c0 97.477-79.754 177.231-177.231 177.231s-177.231-79.754-177.231-177.231v-39.385c0-97.477 79.754-177.231 177.231-177.231s177.231 79.754 177.231 177.231zM512 959.606c-282.782 0-512-229.218-512-512 0-148.349 63.015-281.994 163.84-375.335 90.939-84.467 204.853-129.851 319.672-135.89l-76.8 73.925 78.625 177.086-84.007 67.085-230.019-74.174c-58.014 73.662-92.541 166.479-92.541 267.303 0 238.933 194.297 433.231 433.231 433.231s433.231-194.297 433.231-433.231c0-100.693-34.527-193.51-92.423-267.159l-230.137 74.043-84.152-67.085 78.638-177.086-76.8-73.925c118.036 6.223 230.965 53.379 319.79 135.89 100.838 93.315 163.853 226.974 163.853 375.322 0 282.782-229.218 512-512 512z" />
<glyph unicode="&#xe604;" d="M511.961-63.985c-282.286 0-511.961 229.675-511.961 511.977 0 282.317 229.675 511.992 511.961 511.992 282.333 0 512.039-229.675 512.039-511.992 0-282.302-229.69-511.977-512.039-511.977zM511.961 898.052c-248.146 0-450.029-201.898-450.029-450.060 0-248.146 201.883-450.029 450.029-450.029 248.193 0 450.107 201.883 450.107 450.029 0 248.162-201.914 450.060-450.107 450.060zM689.799 604.944l-129.562 40.147-260.672-260.672 164.228-164.228 260.672 260.672-34.666 124.081zM593.495 469.034c-25.47 0-46.093 20.623-46.093 46.093 0 25.439 20.623 46.077 46.093 46.077s46.093-20.639 46.093-46.077c0-25.47-20.623-46.093-46.093-46.093z" />
<glyph unicode="&#xe605;" d="M1003.894 497.15l-51.107 51.107 23.958 68.082c12.701 35.817-6.14 75.366-42.077 88.188l-40.332 14.206v42.8c0 38.104-31.001 69.045-68.985 69.045h-72.296l-31.122 65.132c-15.892 33.289-58.691 48.578-92.161 32.626l-38.706-18.54-30.158 30.219c-26.005 26.125-71.453 26.246-97.638 0.060l-51.167-51.107-68.022 23.958c-35.034 12.641-75.787-6.983-88.248-41.957l-14.206-40.392h-42.8c-38.044 0-69.045-31.001-69.045-69.045v-72.236l-65.313-31.182c-34.252-16.434-48.819-57.728-32.386-92.1l18.48-38.586-30.279-30.279c-13.123-13.063-20.286-30.399-20.286-48.94 0-18.48 7.224-35.757 20.226-48.699l51.107-51.167-24.079-68.202c-6.14-17.276-5.117-35.997 2.829-52.672s21.911-29.255 39.308-35.395l40.332-14.206v-42.8c0-38.104 31.001-68.985 69.045-68.985h72.296l31.182-65.253c15.892-33.289 58.752-48.458 92.040-32.566l38.646 18.601 30.279-30.339c13.063-13.063 30.399-20.226 48.879-20.226s35.817 7.163 48.759 20.226l51.167 51.046 68.202-23.958c35.094-12.461 75.787 7.163 88.067 42.077l14.267 40.452h42.86c38.044 0 68.985 30.941 68.985 68.985v72.175l65.193 31.182c34.252 16.434 48.94 57.728 32.506 92.161l-18.48 38.586 30.279 30.339c26.848 26.787 26.848 70.61 0 97.578zM923.171 303.137l-102.815-49.12v-113.952h-90.174l-30.098-85.118-107.39 37.864-80.603-80.422-63.929 63.748-81.145-39.248-49.301 103.237h-113.952v90.174l-85.057 30.098 37.924 107.33-80.543 80.663 63.808 63.808-38.947 81.385 102.815 49.12v113.891h90.234l30.098 85.057 107.45-37.924 80.543 80.543 63.868-63.748 81.205 39.308 49.361-103.237h113.952v-90.234l85.057-30.038-37.924-107.511 80.603-80.543-63.989-63.808 38.947-81.325zM666.012 503.531c-69.587 0-114.132-55.2-114.132-127.977 0.602-76.51 49.542-122.861 111.062-122.861 58.932 0 112.868 44.425 112.868 129.783 0 69.587-39.549 121.055-109.798 121.055zM664.808 304.642c-27.63 0-42.017 30.821-41.415 73.379 0 40.813 12.581 73.44 41.415 73.44 29.436 0 40.091-31.964 40.091-73.44 0-45.749-13.183-73.379-40.091-73.379zM608.284 672.863l-233.923-421.495h50.746l234.645 421.495zM482.293 551.809c0 69.647-39.549 121.055-109.798 121.055-69.587 0-114.132-55.2-114.132-127.977 0-76.51 48.94-122.921 111.062-122.921 58.872 0 112.868 44.545 112.868 129.844zM371.231 474.035c-27.63 0-42.017 30.7-42.017 73.379 0 40.813 13.183 73.379 41.415 73.379 29.496 0 40.813-31.964 40.813-73.379-0.060-45.749-13.243-73.379-40.211-73.379z" />
<glyph unicode="&#xe606;" d="M512 960c-282.782 0-512-229.218-512-512s229.218-512 512-512c282.782 0 512 229.218 512 512s-229.218 512-512 512zM512 16c-238.594 0-432 193.406-432 432s193.406 432 432 432 432-193.406 432-432-193.406-432-432-432zM416 608h320v-64h-320v64zM416 480h320v-64h-320v64zM288 608h64v-64h-64v64zM288 480h64v-64h-64v64zM288 352h64v-64h-64v64zM416 352h320v-64h-320v64z" />
<glyph unicode="&#xe607;" d="M512 736c8.832 0 16-7.168 16-16s-7.2-16-16-16c-170.464 0-320-89.728-320-192 0-8.832-7.168-16-16-16s-16 7.168-16 16c0 121.408 161.184 224 352 224zM512 896c-282.784 0-512-171.936-512-384 0-132.064 88.928-248.512 224.256-317.632 0-0.864-0.256-1.44-0.256-2.368 0-57.376-42.848-119.136-61.696-151.552 0.032 0 0.064 0 0.064 0-1.504-3.52-2.368-7.392-2.368-11.456 0-16 12.96-28.992 28.992-28.992 3.008 0 8.288 0.8 8.16 0.448 100 16.384 194.208 108.256 216.096 134.88 31.968-4.704 64.928-7.328 98.752-7.328 282.72 0 512 171.936 512 384s-229.248 384-512 384zM512 192c-29.344 0-59.456 2.24-89.472 6.624-3.104 0.512-6.208 0.672-9.28 0.672-19.008 0-37.216-8.448-49.472-23.36-13.696-16.672-52.672-53.888-98.72-81.248 12.48 28.64 22.24 60.736 22.912 93.824 0.192 2.048 0.288 4.128 0.288 5.888 0 24.064-13.472 46.048-34.88 56.992-118.592 60.544-189.376 157.984-189.376 260.608 0 176.448 200.96 320 448 320 246.976 0 448-143.552 448-320s-200.992-320-448-320z" />
<glyph unicode="&#xe608;" d="M48-64h928c26.464 0 48 21.536 48 48v928c0 26.464-21.536 48-48 48h-928c-26.464 0-48-21.536-48-48v-928c0-26.464 21.536-48 48-48zM32 912c0 8.832 7.2 16 16 16h928c8.8 0 16-7.168 16-16v-928c0-8.832-7.2-16-16-16h-928c-8.8 0-16 7.168-16 16v928zM128 48.672c1.536 0 3.072 0.224 4.576 0.672l320 95.328c2.592 0.768 4.928 2.176 6.816 4.064l322.88 326.56c0.736 0.768 1.12 1.696 1.664 2.56l117.056 117.056c19.424 19.424 19.424 51.040 0 70.496l-167.552 167.488c-19.424 19.424-51.040 19.456-70.464 0l-119.648-119.648c-0.768-0.768-1.152-1.728-1.728-2.592l-323.776-323.808c-1.792-1.792-3.136-3.968-3.904-6.368l-101.12-310.88c-1.856-5.664-0.384-11.872 3.744-16.128 3.040-3.104 7.2-4.8 11.456-4.8zM555.488 679.328l33.28-33.28-272.736-274.016-55.264 12.544 294.72 294.752zM336 346.72l275.424 276.672 77.888-77.888-279.84-273.504h-73.472v74.72zM748.32 486.496l-295.872-299.264-18.432 63.968 277.888 271.648 36.416-36.352zM239.776 356.512l64.224-14.592v-85.92c0-8.832 7.168-16 16-16h83.968l20.256-70.4-271.584-80.896 87.136 267.808zM685.6 810.272c6.976 6.944 18.304 6.912 25.216 0l167.52-167.52c6.976-6.944 6.976-18.272 0-25.248l-107.904-107.904-192.736 192.736 107.904 107.936z" />
</font>
</defs>
</svg>
